<?xml version="1.0" encoding="UTF-8" standalone="no"?>
<!-- Created with Inkscape (http://www.inkscape.org/) -->

<svg
   xmlns:dc="http://purl.org/dc/elements/1.1/"
   xmlns:cc="http://creativecommons.org/ns#"
   xmlns:rdf="http://www.w3.org/1999/02/22-rdf-syntax-ns#"
   xmlns:svg="http://www.w3.org/2000/svg"
   xmlns="http://www.w3.org/2000/svg"
   xmlns:sodipodi="http://sodipodi.sourceforge.net/DTD/sodipodi-0.dtd"
   xmlns:inkscape="http://www.inkscape.org/namespaces/inkscape"
   width="211.05525mm"
   height="237.60971mm"
   viewBox="0 0 211.05525 237.60971"
   version="1.1"
   id="svg71"
   inkscape:version="0.92.0 r15299"
   sodipodi:docname="couple_intro.svg">
  <defs
     id="defs65" />
  <sodipodi:namedview
     id="base"
     pagecolor="#ffffff"
     bordercolor="#666666"
     borderopacity="1.0"
     inkscape:pageopacity="0.0"
     inkscape:pageshadow="2"
     inkscape:zoom="0.35"
     inkscape:cx="32.921039"
     inkscape:cy="335.62518"
     inkscape:document-units="mm"
     inkscape:current-layer="layer1"
     showgrid="false"
     inkscape:window-width="1366"
     inkscape:window-height="739"
     inkscape:window-x="-9"
     inkscape:window-y="-9"
     inkscape:window-maximized="1" />
  <metadata
     id="metadata68">
    <rdf:RDF>
      <cc:Work
         rdf:about="">
        <dc:format>image/svg+xml</dc:format>
        <dc:type
           rdf:resource="http://purl.org/dc/dcmitype/StillImage" />
        <dc:title></dc:title>
      </cc:Work>
    </rdf:RDF>
  </metadata>
  <g
     inkscape:label="Layer 1"
     inkscape:groupmode="layer"
     id="layer1"
     transform="translate(0.01690584,-0.02444687)">
    <g
       id="g239"
       transform="matrix(1.4432024,0,0,1.4432024,-29.094237,-60.960593)">
      <g
         transform="matrix(-0.27676274,0,0,0.28866843,145.91086,81.586025)"
         style="display:inline;fill:none;fill-rule:evenodd;stroke:none;stroke-width:1"
         id="Head/Front/Rad">
        <g
           style="fill:#b28b67"
           id="Head-6"
           transform="translate(54,31)">
          <path
             inkscape:connector-curvature="0"
             d="M 8.2622739,34.490127 C 3.6543643,29.081376 0.53563479,22.452877 1.0567763,15.025454 2.5583302,-6.3750206 32.348531,-1.6671889 38.143341,9.1339329 43.938152,19.935055 43.249578,47.332996 35.760301,49.263458 32.773588,50.033323 26.411001,48.147461 19.935372,44.244306 L 24,73 H 0 Z"
             id="path3866" />
        </g>
        <path
           style="fill:#191847"
           inkscape:connector-curvature="0"
           d="m 95.406618,38.901701 c 0.775178,-0.768184 1.198019,-1.864637 1.563794,-2.905764 0.379857,-1.081528 0.748946,-2.174199 1.001141,-3.299907 0.50393,-2.249226 0.508716,-4.835876 -1.095852,-6.582399 -1.28684,-1.400542 -3.217697,-2.028722 -4.999723,-2.165244 -1.18725,-0.09105 -2.406622,0.07523 -3.544722,0.449368 -1.129171,0.371156 -2.102516,1.110881 -3.197171,1.57 -0.04179,-2.423858 -0.456989,-4.960058 -1.68667,-7.029677 -1.183293,-1.991307 -3.069878,-3.108756 -5.218415,-3.404387 -2.205234,-0.303393 -4.382857,0.212643 -6.357066,1.28024 -0.494266,0.267371 -0.983929,0.54748 -1.452515,0.864505 -0.392375,0.265481 -0.800305,0.585193 -1.260699,0.693156 -0.513227,0.120502 -0.767631,-0.175926 -1.101191,-0.550365 -0.391087,-0.43902 -0.831692,-0.825699 -1.297977,-1.168495 -2.061741,-1.515472 -4.766856,-2.138576 -7.155438,-1.230189 -1.100547,0.418521 -2.170719,1.12929 -2.917364,2.108724 -0.665556,0.873063 -1.140309,2.257983 -2.058888,2.866261 -0.389798,0.258217 -0.665096,-0.08388 -1.02001,-0.336727 -0.533107,-0.379913 -1.041547,-0.799131 -1.581097,-1.168695 -0.757874,-0.51922 -1.578429,-0.907591 -2.457154,-1.110881 -1.286379,-0.297621 -3.064079,-0.227868 -3.431879,1.456962 -0.138063,0.632856 -0.03221,1.309694 0.01243,1.947326 0.06121,0.87555 0.125085,1.750802 0.201112,2.625059 0.05771,0.663802 0.130699,1.304917 0.255968,1.956779 0.06682,0.347474 0.275942,0.995256 0.126926,1.343227 -0.186201,0.434939 -1.045597,0.187668 -1.412753,0.202793 -0.725199,0.02995 -1.453435,0.157119 -2.123961,0.46698 -0.519669,0.240206 -1.066031,0.593451 -1.285367,1.189092 -0.134842,0.365883 -0.09931,0.741716 -0.03562,1.118146 0.0764,0.451755 -0.01095,0.691365 -0.06802,1.1472 -0.973989,-0.479617 -4.34917,-1.545223 -4.773852,0.200305 -0.141376,0.581213 0.180587,1.23795 0.426247,1.728115 0.430849,0.859729 0.99571,1.645525 1.573182,2.394903 1.204554,1.563333 2.642619,2.911735 4.189845,4.064906 -1.812768,0.805896 -2.285956,3.182987 -0.716455,4.599251 0.692984,0.625294 1.624725,0.764502 2.498849,0.724501 0.319938,-0.01463 0.78116,-0.137617 1.032895,-0.08189 0.135486,0.02995 0.280544,0.14478 0.468218,0.157617 1.233639,0.08448 2.626235,-0.212744 3.832169,-0.486484 2.148813,-0.487776 4.183126,-1.505819 5.844392,-3.056316 0.426155,-0.397724 0.778216,-0.626687 1.351821,-0.620816 0.502642,0.0051 0.995803,0.14289 1.497984,0.155627 1.328719,0.03393 2.526738,-0.615642 3.760561,-1.047994 0.07557,1.66682 0.550227,3.5026 1.232075,5.00215 0.556025,1.222825 1.717135,1.400542 2.858088,1.507809 3.648546,0.343295 7.309977,-0.0398 10.963125,-0.03473 -3.536346,0.799329 -7.190598,1.128792 -10.695559,2.069419 -1.584319,0.425088 -0.374518,1.492884 0.302911,2.233106 1.115457,1.218945 1.944848,2.729242 2.52011,4.320337 1.72993,-2.254997 4.787658,-3.740816 7.496639,-3.048057 2.993206,0.765298 5.100876,4.813089 3.186862,7.723132 -1.111223,1.689308 -3.117923,2.341468 -4.787657,3.067262 1.302578,1.354273 1.617638,3.354436 2.401652,5.039266 0.386669,0.830872 0.92944,1.770305 1.794175,2.059867 0.319938,0.107167 0.695102,0.116322 0.947481,0.377126 0.312666,0.322896 0.387128,0.683903 0.786407,0.961424 1.593247,1.107697 4.081971,1.022321 5.494172,-0.423198 1.277083,-1.307305 0.944811,-3.376028 -0.121772,-4.701443 1.697807,-0.707685 4.790972,-1.617863 4.116211,-4.262923 3.67892,-0.244286 12.611227,-6.210845 7.673544,-10.570785 2.709803,-1.531492 5.199363,-5.274298 3.458753,-8.573607 -1.34032,-2.540579 -4.457409,-3.676237 -7.014889,-3.810968"
           id="hair"
           transform="matrix(-1,0,0,1,140,0)" />
      </g>
      <g
         transform="matrix(-0.26458333,0,0,0.26458333,168.09222,135.20244)"
         style="display:inline;fill:none;fill-rule:evenodd;stroke:none;stroke-width:1"
         id="Bottom/Standing/Baggy-Pants">
        <polygon
           style="fill:#997659"
           id="Leg-8"
           points="178.67369,5.090379e-013 134,0 183.08164,124.22691 216.0009,229.25029 229,229.25029 " />
        <path
           style="fill:#b28b67"
           inkscape:connector-curvature="0"
           d="m 124.11663,0 c -0.52265,43.654189 -8.1448,102.42747 -9.36256,105.14865 -0.81184,1.81412 -28.837913,24.88381 -84.078215,69.20909 l 8.953216,9.581 C 104.80751,145.93538 138.9048,124.39934 141.92094,119.33063 146.44514,111.72756 161.1744,41.763137 173,0 Z"
           id="path3802" />
        <g
           style="fill:#e4e4e4"
           id="Accessories/Shoe/Flat-Sneaker"
           transform="rotate(50,-140.21083,127.01732)">
          <path
             inkscape:connector-curvature="0"
             d="M 2.6781318,25.401924 C 1.5593773,28.388411 1,30.622993 1,32.105671 1,33.908957 1.3004142,36.5404 1.9012426,40 c 2.0919386,0 20.8925424,0 56.4018124,0 1.465683,-4.845493 0.619606,-7.461418 -2.538232,-7.847777 -3.157838,-0.386358 -5.781107,-0.735209 -7.869809,-1.046552 L 21.679993,19.418883 c -0.50443,-0.224877 -1.095649,0.0017 -1.320526,0.506174 -0.0038,0.0086 -0.0076,0.01731 -0.01117,0.02605 l -1.685082,4.08759 c -2.923332,1.363957 -5.298842,2.045936 -7.126532,2.045936 -1.484954,0 -3.5356885,-0.599726 -6.1522031,-1.799176 l 5.5e-6,-1.2e-5 c -1.0041007,-0.460295 -2.1912281,-0.01945 -2.6515233,0.984647 -0.019839,0.04328 -0.038127,0.08725 -0.054828,0.131834 z"
             id="shoe" />
        </g>
        <g
           style="fill:#e4e4e4"
           id="g3808"
           transform="translate(208,199)">
          <path
             inkscape:connector-curvature="0"
             d="M 2.6781318,25.401924 C 1.5593773,28.388411 1,30.622993 1,32.105671 1,33.908957 1.3004142,36.5404 1.9012426,40 c 2.0919386,0 20.8925424,0 56.4018124,0 1.465683,-4.845493 0.619606,-7.461418 -2.538232,-7.847777 -3.157838,-0.386358 -5.781107,-0.735209 -7.869809,-1.046552 L 21.679993,19.418883 c -0.50443,-0.224877 -1.095649,0.0017 -1.320526,0.506174 -0.0038,0.0086 -0.0076,0.01731 -0.01117,0.02605 l -1.685082,4.08759 c -2.923332,1.363957 -5.298842,2.045936 -7.126532,2.045936 -1.484954,0 -3.5356885,-0.599726 -6.1522031,-1.799176 l 5.5e-6,-1.2e-5 c -1.0041007,-0.460295 -2.1912281,-0.01945 -2.6515233,0.984647 -0.019839,0.04328 -0.038127,0.08725 -0.054828,0.131834 z"
             id="path3806" />
        </g>
        <polygon
           style="fill:#69a1ac"
           id="Pant-1"
           points="167,218.43289 228.80446,211.72533 183,2.8421709e-014 127.64407,2.8421709e-014 " />
        <path
           style="fill:#89c5cc"
           inkscape:connector-curvature="0"
           d="M 43.459958,158.90048 84,206.88596 c 42.69995,-46.636 67.59414,-77.066 74.68255,-91.28999 C 165.77097,101.37197 172.14309,62.839981 177.79892,0 h -62.32077 c -3.08951,55.283874 -5.17205,84.212126 -6.24762,86.784755 -1.07558,2.572629 -22.999105,26.611205 -65.770572,72.115725 z"
           id="path3811" />
      </g>
      <g
         transform="matrix(-0.26458333,0,0,0.26458333,162.03391,105.56911)"
         style="display:inline;fill:none;fill-rule:evenodd;stroke:none;stroke-width:1"
         id="Body/Long-Sleeve">
        <path
           style="fill:#997659"
           inkscape:connector-curvature="0"
           d="m 192,65.31079 39.48288,-5.385625 c 7.89817,-4.393139 15.16411,-7.367216 21.79781,-8.922234 1.8668,-0.0545 4.83651,0.624123 0.41246,4.312266 -4.42404,3.688143 -8.91285,7.768 -8.12462,9.736297 0.78823,1.968298 4.90253,1.235959 5.58411,4.263369 0.45438,2.018272 -6.22288,2.346221 -20.0318,0.983847 L 199.08387,83 Z m -124.030208,9.138893 21.897392,0.08218 C 65.856099,128.56567 53.336347,156.85691 52.307928,159.4056 c -2.313943,5.73453 2.582672,14.46813 4.676659,19.1615 -6.820046,3.05177 -6.093363,-8.25017 -14.696668,-4.24761 -7.852698,3.65336 -13.826226,10.27299 -22.898884,4.67488 -1.11543,-0.68825 -2.337759,-3.27966 0.615543,-5.3047 7.357754,-5.04512 17.960724,-13.875 19.393352,-16.78142 1.953644,-3.96342 11.477598,-31.44961 28.571862,-82.458567 z"
           id="Skin-2" />
        <path
           style="fill:#afb9c5"
           inkscape:connector-curvature="0"
           d="m 123.47357,9.6692732 17.17924,-0.3564661 c 7.53584,37.6878339 32.55094,59.7208839 83.13765,47.0951389 l 11.10289,48.411184 C 187.48907,115.21041 143.7605,99.693528 130.59578,48.474648 127.18785,35.215699 124.20138,21.368178 123.47357,9.6692732 Z"
           id="Clothes-Back"
           transform="rotate(5,179.18346,58.59147)" />
        <path
           style="fill:#c5cfd6"
           inkscape:connector-curvature="0"
           d="M 119.49082,0.01593955 145.4676,5.9652766 C 145.4676,50.644425 159.70002,79.150459 167,112 H 96.843654 c -0.988275,11.3509 -1.595165,23.01756 -1.911414,35 H 42.401636 C 54.305365,83.663963 79.430111,34.663963 117.77587,0 h 1.70128 z"
           id="Clothes" />
        <path
           style="fill:#000000;fill-opacity:0.1"
           inkscape:connector-curvature="0"
           d="m 107.91245,48.259249 c -1.80799,27.84128 -0.74466,49.088197 3.19,63.740751 H 96.843654 C 98.801423,89.513902 102.25588,68.266989 107.91245,48.25926 Z"
           id="Shade-7" />
      </g>
    </g>
    <g
       id="g219"
       transform="matrix(1.4949491,0,0,1.4949491,-38.307544,-72.058924)">
      <g
         id="Head/Front/Short-Beard"
         transform="matrix(0.3171209,0.00118417,-0.00113477,0.30389047,39.225757,80.628111)"
         style="display:inline;fill:none;fill-rule:evenodd;stroke:none;stroke-width:1">
        <g
           transform="translate(54,31)"
           id="Head"
           style="fill:#b28b67">
          <path
             id="path79"
             d="M 8.2622739,34.490127 C 3.6543643,29.081376 0.53563479,22.452877 1.0567763,15.025454 2.5583302,-6.3750206 32.348531,-1.6671889 38.143341,9.1339329 43.938152,19.935055 43.249578,47.332996 35.760301,49.263458 32.773588,50.033323 26.411001,48.147461 19.935372,44.244306 L 24,73 H 0 Z"
             inkscape:connector-curvature="0" />
        </g>
        <path
           id="Hair"
           d="m 75.135305,48.388929 c 0.918684,12.797176 3.348846,19.195765 7.290486,19.195765 5.912807,0 10.929403,-3.75365 13.5238,-3.75365 1.891228,0 1.468975,2.366696 0.215371,4.121434 -1.034265,1.447714 -6.071045,2.843138 -6.071045,5.087581 0,2.244444 3.979474,0.508042 3.979474,1.839177 0,2.201861 0.699387,6.341753 -3.122167,6.341753 -3.86754,0 -14.956462,-1.409405 -16.856802,-7.149517 C 72.867997,70.366972 72.075026,62.690555 71.715507,51.04222 71.48089,51.014341 71.24212,51 71,51 c -3.313709,0 -6,2.686292 -6,6 0,1.682218 0.692292,3.202743 1.807515,4.292214 -1.388319,1.959602 -2.944226,4.006669 -4.727129,6.118976 -6.697981,-4.018516 -11.668263,-15.782219 -5.1199,-27.082912 1.809988,-5.536033 5.907549,-8.493037 10.746866,-9.866069 3.920096,-1.639789 7.989527,-1.824676 11.424706,-0.841638 6.733903,0.577593 12.746955,2.630942 14.451103,3.850376 0,6.375224 -1.235291,8.266734 -11.786355,8.100005 -2.592568,1.369184 -4.585603,3.726918 -6.661501,6.817977 z"
           inkscape:connector-curvature="0"
           style="fill:#191847" />
      </g>
      <g
         transform="matrix(0.26458333,0,0,0.26458333,192.01464,116.99552)"
         id="g3981"
         style="display:inline">
        <polygon
           style="fill:#373e48;fill-rule:evenodd;stroke:none;stroke-width:1"
           id="Leg-0"
           points="229,221 182.67369,9.8143715e-014 128,0 176.08164,127.22691 209.78333,221 "
           transform="translate(-643.66586,72.841113)" />
        <path
           style="fill:#535d6c;fill-rule:evenodd;stroke:none;stroke-width:1"
           inkscape:connector-curvature="0"
           d="m -527.54923,72.841113 c -0.52265,43.654187 -0.1448,102.427467 -1.36256,105.148647 -0.81184,1.81412 -26.0632,22.48366 -75.75407,62.00861 l 9.90498,16.84274 c 58.9945,-38.0442 89.99982,-59.60066 93.01596,-64.66937 4.5242,-7.60307 27.25346,-77.56749 39.07906,-119.330627 z"
           id="path3925" />
        <g
           style="fill:#1c1f24;fill-rule:evenodd;stroke:none;stroke-width:1"
           id="Accessories/Shoe/Flat-Pointy"
           transform="rotate(50,-537.6479,-521.37389)">
          <path
             inkscape:connector-curvature="0"
             d="M 0,40 1,19 h 21 c 9.957603,7 22.957603,12.666667 39,17 v 4 H 23 L 10,38 v 2 z"
             id="Shoe-6"
             style="fill:#1c1f24" />
        </g>
        <g
           style="fill:#1c1f24;fill-rule:evenodd;stroke:none;stroke-width:1"
           id="g3931"
           transform="translate(-435.66586,271.84111)">
          <path
             inkscape:connector-curvature="0"
             d="M 0,40 1,19 h 21 c 9.957603,7 22.957603,12.666667 39,17 v 4 H 23 L 10,38 v 2 z"
             id="path3929"
             style="fill:#1c1f24" />
        </g>
        <path
           style="opacity:1;fill:#373e48;fill-opacity:0;fill-rule:nonzero;stroke:#000000;stroke-width:0.27065024;stroke-linecap:butt;stroke-linejoin:round;stroke-miterlimit:4;stroke-dasharray:none;stroke-dashoffset:0;stroke-opacity:0;paint-order:fill markers stroke"
           d="m -434.69189,290.25695 c -0.20405,-0.33017 -7.77275,-21.1954 -16.81933,-46.36718 -9.04658,-25.17178 -20.55488,-56.63034 -25.574,-69.90791 l -9.12567,-24.14104 7.62046,-24.1954 c 4.19125,-13.30747 9.48319,-30.554623 11.75986,-38.327002 2.27667,-7.772379 4.46771,-14.136677 4.86899,-14.142885 0.51096,-0.0079 38.57842,178.722117 46.02056,216.070507 0.31982,1.60502 0.2851,1.61122 -9.0294,1.61122 -5.14276,0 -9.51742,-0.27014 -9.72147,-0.60031 z"
           id="path3963"
           inkscape:connector-curvature="0" />
        <path
           style="opacity:1;fill:#373e48;fill-opacity:0;fill-rule:nonzero;stroke:#000000;stroke-width:0.27065024;stroke-linecap:butt;stroke-linejoin:round;stroke-miterlimit:4;stroke-dasharray:none;stroke-dashoffset:0;stroke-opacity:0;paint-order:fill markers stroke"
           d="m -434.69189,290.25695 c -0.20405,-0.33017 -7.77275,-21.1954 -16.81933,-46.36718 -9.04658,-25.17178 -20.55488,-56.63034 -25.574,-69.90791 l -9.12567,-24.14104 7.62046,-24.1954 c 4.19125,-13.30747 9.48319,-30.554623 11.75986,-38.327002 2.27667,-7.772379 4.46771,-14.136677 4.86899,-14.142885 0.51096,-0.0079 38.57842,178.722117 46.02056,216.070507 0.31982,1.60502 0.2851,1.61122 -9.0294,1.61122 -5.14276,0 -9.51742,-0.27014 -9.72147,-0.60031 z"
           id="path3965"
           inkscape:connector-curvature="0" />
      </g>
      <g
         transform="matrix(0.26458333,0,0,0.26458333,26.504382,106.10557)"
         style="display:inline;fill:none;fill-rule:evenodd;stroke:none;stroke-width:1"
         id="Body/Jacket">
        <path
           style="fill:#b28b67"
           inkscape:connector-curvature="0"
           d="m 194.04441,89.122512 28.3279,27.635028 c 8.24238,3.51581 14.99583,7.39797 20.26036,11.64649 1.18392,1.42807 2.4728,4.16433 -3.09746,2.9399 -5.57025,-1.22444 -11.48439,-2.26185 -12.53131,-0.45036 -1.04692,1.81148 2.03791,4.58733 0.10307,6.9581 -1.28989,1.58052 -5.62789,-3.44679 -13.01401,-15.08192 L 184.63568,105.40247 Z M 68.307928,93.019891 89.20532,93.102071 C 76.302145,134.75574 69.336347,156.85691 68.307928,159.4056 c -2.313943,5.73453 2.582672,14.46813 4.676659,19.1615 -6.820046,3.05177 -6.093363,-8.25017 -14.696668,-4.24761 -7.852698,3.65336 -13.826226,10.27299 -22.898884,4.67488 -1.11543,-0.68825 -2.337759,-3.27966 0.615543,-5.3047 7.357754,-5.04512 17.960724,-13.875 19.393352,-16.78142 1.953644,-3.96342 6.256977,-25.25954 12.909998,-63.888359 z"
           id="Skin-5" />
        <path
           style="fill:#191847"
           inkscape:connector-curvature="0"
           d="m 122.01899,9.2319998 8.48495,-2.2311707 c 18.07223,35.7511759 46.91058,67.1492739 86.51505,94.1942909 l -24.9572,36.36993 C 151.33882,97.685755 124.67057,55.198591 122.01899,9.2319998 Z"
           id="Coat-Back-3"
           transform="rotate(5,169.51899,72.28294)" />
        <path
           style="fill:#dde3e9"
           inkscape:connector-curvature="0"
           d="m 90,114 h 77 C 149.16087,70.625147 140.2413,33.778724 140.2413,3.4607303 L 117.01421,0 C 98.759893,29.358407 93.604826,65.50455 90,114 Z"
           id="Shirt-4" />
        <path
           style="fill:#2f3676"
           inkscape:connector-curvature="0"
           d="m 116.52244,0.01641987 c 0.003,-0.0054742 0.006,-0.01094753 0.009,-0.01641987 h 1.51617 c 1.81423,0.06247314 4.57753,0.17503089 8.28991,0.33767328 l 5.6125,16.03920672 c 0.59368,19.555543 4.06067,58.965238 10.40097,118.22909 H 91.876082 c 0.13232,4.09311 0.350494,8.22445 0.654523,12.39403 H 55 C 60.613916,83.663963 81.115237,34.663963 116.50396,0 l 0.0185,0.01641986 z"
           id="Coat-Front-5" />
        <path
           style="fill:#000000;fill-opacity:0.1"
           inkscape:connector-curvature="0"
           d="M 95.21023,82.233101 C 96.646743,107.74789 100.24333,125.33686 106,135 H 91.889081 C 91.27131,116.64285 92.37836,99.053909 95.210229,82.233108 Z"
           id="Shade-2" />
        <polygon
           style="fill:#ffffff;fill-opacity:0.2"
           id="Light"
           points="128,104 103.1109,104 128,92.429272 " />
      </g>
    </g>
    <rect
       style="opacity:1;fill:#d10000;fill-opacity:0;fill-rule:nonzero;stroke:#000000;stroke-width:0.10603908;stroke-linecap:butt;stroke-linejoin:round;stroke-miterlimit:4;stroke-dasharray:none;stroke-dashoffset:0;stroke-opacity:0;paint-order:fill markers stroke"
       id="rect244"
       width="210.94922"
       height="237.50368"
       x="0.036113694"
       y="0.077466413" />
  </g>
</svg>
